
<svg
    xmlns="http://www.w3.org/2000/svg"
    viewBox="0 0 132.73 149.13"
    class="current"
>
    <path
        fill="current"
        fillRule="evenodd"
        d="M65.66,51h67a0,0,0,0,0,0,0V44.82a15.14,15.14,0,0,0-7.54-13.09L74,2A15.12,15.12,0,0,0,58.78,2L7.54,31.73A15.14,15.14,0,0,0,0,44.82v59.49A15.14,15.14,0,0,0,7.54,117.4l51.24,29.69a15.12,15.12,0,0,0,15.17,0l51.24-29.69a15.14,15.14,0,0,0,7.54-13.09v-43a0,0,0,0,0,0,0H66.07A13.53,13.53,0,0,0,52.41,74,13.25,13.25,0,0,0,65.65,87.82h30a5.12,5.12,0,0,1,.45,10.23v0h-31A23.53,23.53,0,0,1,41.54,73.75C42,61,52.88,51,65.66,51Z"
    />
</svg>